<svg width="32" height="27" viewBox="0 0 32 27" fill="none" xmlns="http://www.w3.org/2000/svg">
<path d="M4.33333 4L1 8.4V23.8C1 24.3835 1.23413 24.9431 1.65087 25.3556C2.06762 25.7682 2.63285 26 3.22222 26H18.7778C19.3671 26 19.9324 25.7682 20.3491 25.3556C20.7659 24.9431 21 24.3835 21 23.8V8.4L17.6667 4H4.33333Z" stroke="black" stroke-width="2" stroke-linecap="round" stroke-linejoin="round"/>
<path d="M1 8.39996H21" stroke="black" stroke-width="2" stroke-linecap="round" stroke-linejoin="round"/>
<path d="M15.4448 12.7999C15.4448 13.9669 14.9765 15.086 14.1431 15.9112C13.3096 16.7364 12.1791 17.1999 11.0004 17.1999C9.82161 17.1999 8.69115 16.7364 7.85766 15.9112C7.02416 15.086 6.55591 13.9669 6.55591 12.7999" stroke="black" stroke-width="2" stroke-linecap="round" stroke-linejoin="round"/>
<circle cx="24" cy="8" r="8" fill="black"/>
<path d="M24.9668 9.0293V5.22656L22.2773 9.0293H24.9668ZM24.9844 12V9.94922H21.3047V8.91797L25.1484 3.58594H26.0391V9.0293H27.2754V9.94922H26.0391V12H24.9844Z" fill="white"/>
</svg>
