<svg width="77" height="24" viewBox="0 0 77 24" fill="none" xmlns="http://www.w3.org/2000/svg">
<path d="M0 23.7647V0.235293H3.48497V21.3782H12.4208V23.7647H0Z" fill="black"/>
<path d="M19.2529 5.91597C19.2529 4.10084 19.8337 2.66667 20.9954 1.61344C22.1868 0.537815 23.9889 0 26.4015 0C28.8142 0 30.6163 0.537815 31.8077 1.61344C32.9992 2.66667 33.5949 4.10084 33.5949 5.91597V18.084C33.5949 19.8768 32.9992 21.3109 31.8077 22.3866C30.6163 23.4622 28.8142 24 26.4015 24C23.9889 24 22.1868 23.4622 20.9954 22.3866C19.8337 21.3109 19.2529 19.8768 19.2529 18.084V5.91597ZM22.6932 18.2185C22.6932 19.2941 22.991 20.1345 23.5868 20.7395C24.2123 21.3221 25.1505 21.6134 26.4015 21.6134C27.6823 21.6134 28.6206 21.3221 29.2163 20.7395C29.8121 20.1345 30.1099 19.2941 30.1099 18.2185V5.78151C30.1099 4.70588 29.8121 3.87675 29.2163 3.29412C28.6206 2.68907 27.6823 2.38655 26.4015 2.38655C25.1505 2.38655 24.2123 2.68907 23.5868 3.29412C22.991 3.87675 22.6932 4.70588 22.6932 5.78151V18.2185Z" fill="black"/>
<path d="M48.101 0C50.5136 0 52.2859 0.537815 53.4178 1.61344C54.5794 2.68908 55.1603 4.12325 55.1603 5.91597V7.93277H51.854V5.78151C51.854 4.70588 51.5561 3.87675 50.9604 3.29412C50.3945 2.68907 49.4711 2.38655 48.1903 2.38655C46.9393 2.38655 46.0159 2.68907 45.4202 3.29412C44.8245 3.87675 44.5266 4.70588 44.5266 5.78151V18.2185C44.5266 19.2941 44.8245 20.1345 45.4202 20.7395C46.0159 21.3221 46.9393 21.6134 48.1903 21.6134C49.4711 21.6134 50.3945 21.3221 50.9604 20.7395C51.5561 20.1345 51.854 19.2941 51.854 18.2185V13.5126H48.6371V11.1597H55.1603V18.084C55.1603 19.8768 54.5794 21.3109 53.4178 22.3866C52.2859 23.4622 50.5136 24 48.101 24C45.7181 24 43.9458 23.4622 42.7841 22.3866C41.6523 21.3109 41.0863 19.8768 41.0863 18.084V5.91597C41.0863 5.01961 41.2204 4.21288 41.4884 3.4958C41.7863 2.7563 42.2182 2.12885 42.7841 1.61344C43.3799 1.09804 44.1096 0.705882 44.9734 0.436975C45.867 0.145658 46.9095 0 48.101 0Z" fill="black"/>
<path d="M62.658 5.91597C62.658 4.10084 63.2388 2.66667 64.4005 1.61344C65.5919 0.537815 67.394 0 69.8066 0C72.2193 0 74.0214 0.537815 75.2128 1.61344C76.4043 2.66667 77 4.10084 77 5.91597V18.084C77 19.8768 76.4043 21.3109 75.2128 22.3866C74.0214 23.4622 72.2193 24 69.8066 24C67.394 24 65.5919 23.4622 64.4005 22.3866C63.2388 21.3109 62.658 19.8768 62.658 18.084V5.91597ZM66.0983 18.2185C66.0983 19.2941 66.3961 20.1345 66.9919 20.7395C67.6174 21.3221 68.5556 21.6134 69.8066 21.6134C71.0875 21.6134 72.0257 21.3221 72.6214 20.7395C73.2172 20.1345 73.515 19.2941 73.515 18.2185V5.78151C73.515 4.70588 73.2172 3.87675 72.6214 3.29412C72.0257 2.68907 71.0875 2.38655 69.8066 2.38655C68.5556 2.38655 67.6174 2.68907 66.9919 3.29412C66.3961 3.87675 66.0983 4.70588 66.0983 5.78151V18.2185Z" fill="black"/>
</svg>
